<svg fill="none" height="25" viewBox="0 0 15 25" width="15" xmlns="http://www.w3.org/2000/svg"><path d="m13.9438 8.47168c-.0671-.08138-.1594-.12207-.2768-.12207h-4.35432v-3.32031l.57889-.56153h3.75023c.1007 0 .1846-.03255.2517-.09765.0671-.06511.1007-.14649.1007-.24414v-3.784183c0-.097656-.0336-.179037-.1007-.2441408-.0671-.0651041-.151-.0976562-.2517-.0976562h-7.04742c-.0839 0-.1594.0325521-.22652.0976562l-2.34076 2.2949238c-.06711.0651-.10067.13834-.10067.21972v5.73731h-3.574058c-.100678 0-.184576.03255-.251694.09766-.0671188.0651-.100678.14648-.100678.24414v3.78419c0 .0976.0335592.179.100678.2441.067118.0651.151016.0977.251694.0977h3.548888v11.8408c0 .0977.03356.179.10067.2441.06712.0651.15102.0977.2517.0977h4.70668c.10067 0 .18457-.0326.25169-.0977s.10068-.1464.10068-.2441v-11.8408h3.57402c.0839 0 .1594-.0244.2266-.0733.0671-.0488.109-.1139.1258-.1953l.7803-3.78415c.0167-.11393-.0084-.21159-.0756-.29297zm-1.3339 3.66212h-3.64959c-.10068 0-.18458.0407-.2517.1221-.06712.0651-.10068.1383-.10068.2197v11.8408h-4.00193v-11.8408c0-.0814-.03356-.1546-.10068-.2197-.06712-.0814-.15101-.1221-.25169-.1221h-3.548887v-3.1006h3.548887c.10068 0 .18457-.03255.25169-.09765.06712-.06511.10068-.14649.10068-.24414v-5.93262l2.1394-2.075196h6.5692v3.124996h-3.57404c-.10068 0-.18458.03256-.2517.09766l-.78025.75684c-.06712.0651-.10068.14648-.10068.24414v3.78418c0 .09765.03356.17903.10068.24414.06712.0651.15102.09765.2517.09765h4.27879z" fill="#fff"/></svg>