<svg fill="none" height="24" viewBox="0 0 24 24" width="24" xmlns="http://www.w3.org/2000/svg"><path d="m23.9062 2.29688-2.1796-2.20313c-.0625-.0625-.1407-.09375-.2344-.09375h-18.98439c-.09375 0-.17187.03125-.23437.09375l-2.17969 2.20313c-.0625.0625-.09375.13281-.09375.21093v18.98439c0 .0937.03125.164.09375.2109l2.17969 2.2031c.0625.0626.14062.0938.23437.0938h18.98439c.0937 0 .1719-.0312.2344-.0938l2.1796-2.1796c.0626-.0625.0938-.1407.0938-.2344v-18.96095c0-.09375-.0312-.17187-.0938-.23437zm-.5624 19.05472-1.9688 1.9922h-18.72656l-1.99219-1.9922v-18.70316l1.99219-1.99219h18.72656l1.9688 1.99219zm-8.2266-15.44535c-.0625-.0625-.1406-.09375-.2344-.09375h-5.76561c-.09375 0-.17188.03125-.23438.09375l-2.95312 2.95313c-.0625.0625-.09375.14062-.09375.23437v5.88285c0 .0937.03125.1718.09375.2343l2.92969 2.8594c.0625.0625.13281.0938.21093.0938h5.85939c.0937 0 .1719-.0313.2344-.0938l2.9062-2.8594c.0781-.0625.1094-.1406.0938-.2343v-5.88285c.0156-.09375-.0157-.17187-.0938-.23437zm2.414 8.92965-2.7421 2.6719h-5.57816l-2.74219-2.6719v-5.60152l2.78906-2.76563h5.48439l2.789 2.76563zm3.2344-11.95309h-2.9297c-.0781 0-.1562.03125-.2343.09375-.0625.0625-.0938.14063-.0938.23438v2.92968c0 .09376.0313.17188.0938.23438.0781.0625.1562.09375.2343.09375h2.9297c.0938 0 .1719-.03125.2344-.09375s.0938-.14062.0938-.23438v-2.92968c0-.09375-.0313-.17188-.0938-.23438s-.1406-.09375-.2344-.09375zm-.3281 2.92969h-2.2734v-2.27344h2.2734z" fill="#fff"/></svg>