<?xml version="1.0" encoding="utf-8"?>
<!-- Generator: Adobe Illustrator 22.0.1, SVG Export Plug-In . SVG Version: 6.00 Build 0)  -->
<svg version="1.1" id="Layer_1" xmlns="http://www.w3.org/2000/svg" xmlns:xlink="http://www.w3.org/1999/xlink" x="0px" y="0px"
	 viewBox="0 0 1024 407.7" style="enable-background:new 0 0 1024 407.7;" xml:space="preserve">
<style type="text/css">
	.st0{fill:#FFFFFF;}
</style>
<g>
	<path class="st0" d="M162.5,90.1c6.1-22.3,26.9-32.8,51.9-32.8c36.2,0,54,14.8,54,43.7v79.8h-32.3h-1.3v-14.8h-0.9
		c-6.6,10.9-19.4,17.8-37.6,17.8c-26.5,0-39.3-14.1-39.3-34.3c0-20.5,12.1-32.3,39.8-36.5l22-3.5c11.4-1.7,14.4-3.5,14.4-9.6
		c0-10.1-5.4-17.8-18.7-17.8c-12.8,0-19.7,6.7-20.6,17.8 M218.3,129.2l-11.9,2c-10.7,1.7-14.9,6.9-14.9,14.3
		c0,8.9,5.7,13.6,15.9,13.6c12.3,0,25.8-7.2,25.8-26.2v-6.7C233.1,126.2,223.2,128.4,218.3,129.2z"/>
	<path class="st0" d="M305.5,86.9h-22.7V60.3h22.7V23.7h36.8v36.5h28.9v26.7h-28.9v47.2c0,12.8,3.5,17.8,16.8,17.8h12.1v28.9h-20
		c-35.3,0-45.7-11.1-45.7-44.5V86.9z"/>
	<path class="st0" d="M724.7,57.3c39.3,0,65.9,22.7,65.9,63.2c0,40-27.9,63.2-65.9,63.2c-39.3,0-66.2-22.7-66.2-63.2
		C658.5,80.5,686.7,57.3,724.7,57.3z M724.7,156.8c17.3,0,28.4-13.8,28.4-36.3c0-23-11.1-36.1-28.4-36.1
		c-17.3,0-28.4,13.6-28.4,36.1C696.3,143,707.4,156.8,724.7,156.8z"/>
	<path class="st0" d="M807.2,60.3h35.1v17.5h1c5.9-12.3,16.3-20.5,31.6-20.5c4.9,0,10.6,0.7,16.8,4.9l-6.4,31.4
		c-5.4-2.7-10.1-4-14.8-4c-18,0-26.7,15.1-26.7,35.6v55.6h-36.5V60.3z"/>
	<path class="st0" d="M900.3,0h36.5v106.4l41.5-46.2h41.5l-45.2,48.2l49.4,72.4h-42l-31.4-46.7l-13.8,14.8v31.9h-36.5V0z"/>
	<path class="st0" d="M63.2,237h45.2l63.2,169.9h-40.5l-11.9-34.8H51.1l-11.9,34.8H0L63.2,237z M61.2,342h47.9l-23.2-69.6h-1
		L61.2,342z"/>
	<path class="st0" d="M187.2,286.4h35.1v17.5h1c5.9-12.3,16.3-20.5,31.6-20.5c4.9,0,10.6,0.7,16.8,4.9l-6.4,31.4
		c-5.4-2.7-10.1-3.9-14.8-3.9c-18,0-26.7,15.1-26.7,35.6v55.6h-36.5V286.4z"/>
	<path class="st0" d="M305.5,313.1h-22.7v-26.7h22.7v-36.5h36.8v36.5h28.9v26.7h-28.9v47.2c0,12.8,3.5,17.8,16.8,17.8h12.1v28.9h-20
		c-35.3,0-45.7-11.1-45.7-44.4V313.1z"/>
	<rect x="471.9" y="399.9" class="st0" width="157.3" height="6.8"/>
	<path class="st0" d="M20.3,10.9h118.9v31.4H58.6v37h72.6v29.4H58.6v40.7h80.9v31.4H20.3V10.9z"/>
	<path class="st0" d="M431.4,11h41.5l23.6,120.2h1L529.8,11h38l33.8,120.2h1L625,11h40.5l-38.1,169.9h-47.2L548.8,61.2h-1
		l-30.6,119.8H470L431.4,11z"/>
</g>
</svg>
