<svg xmlns="http://www.w3.org/2000/svg" viewBox="0 0 144.4 144.4">
  <path fill="white" d="M41.7 20a3.5 3.5 0 0 1-5-1.4 3.6 3.6 0 1 1 5 1.3ZM63.8 10.3l-.3-1.8 5.8-.9.2 1.1c.7 4.3-1.6 7.5-5.5 8.1-4.2.7-8-2-8.7-7s2-8.9 6-9.5a6.1 6.1 0 0 1 7.1 4l-2 .3a4.3 4.3 0 0 0-4.8-2.4c-3.1.5-4.8 3.4-4.2 7.3s3 6 6.3 5.6c2.8-.5 4.1-2.5 4-5.3ZM79.2 16.7C75 16 72.4 12.3 73 7.4S77.1-.5 81.3.1s6.9 4.3 6.3 9.2-4.1 8-8.4 7.4Zm1.9-14.8c-3.1-.4-5.5 2-6 5.8s1.3 6.7 4.4 7.1 5.5-2 6-5.8-1.3-6.7-4.4-7ZM94.5 21c-3.9-1.8-5.3-6.2-3.4-10.7s6.2-6.5 10-4.7 5.4 6 3.4 10.6-6 6.4-10 4.7Zm6-13.7c-3-1.3-6 .3-7.4 3.8s-.7 6.8 2.2 8 5.8-.3 7.4-3.8.6-6.8-2.3-8ZM113.6 12.5l4 3.3c3.6 3 4 7.5.9 11.3s-7.6 4.3-11.3 1.2l-4-3.3Zm-5.2 14.4c2.8 2.3 6 1.8 8.5-1.1s2.3-6.2-.5-8.6l-2.4-2-8 9.7ZM125.6 39.5l-5.7 3-1-1.8L133 33l2.9 5.3c1.6 2.9 1.1 5.5-1.7 7s-5.3.5-6.8-2.4Zm8.8-.4-1.9-3.4-5.3 2.9L129 42c1 2 2.6 2.4 4.2 1.5s2.1-2.4 1-4.4ZM132.1 52.9l-6.6 1.8-.6-2 15.7-4.2 1.6 5.8c.8 3.2-.3 5.6-3.2 6.4-2.6.7-4.5-.5-5.5-2.8l-5.5 6.4-.6-2.3 5.5-6.3Zm1.7-.5 1 3.8c.6 2 2 3 3.6 2.5s2.5-2 2-4l-1-3.7ZM144.3 75.1 128 81v-2.1l5-1.8.2-6.7-4.8-2v-2l16 6.7Zm-9.4-3.9-.1 5.3 7-2.4ZM132.7 93.9l-9.7 2.8.8-2.3 7.7-2.2-4.8-6.5.7-2.2 6 8.1 9.3-2.7-.7 2.3-7.4 2 4.6 6.3-.7 2.1ZM120.5 100.5l1-1.8 14.1 8-1 1.8ZM121.1 107.5a4 4 0 0 0-4.7 1.5c-1.3 1.6-1.5 3.4 0 4.6 1 .8 2 .7 3.6-.4l2.4-1.8c1.9-1.3 3.8-1.9 5.7-.3 2.1 1.8 2 4.7.1 7-2.1 2.7-4.7 3-7 2l1.3-1.7a3.7 3.7 0 0 0 4.4-1.4c1.2-1.4 1.3-3.2 0-4.3-1-.8-2.1-.6-3.5.5l-2.3 1.6c-2.2 1.6-4.2 1.8-6 .4-2.2-1.9-2-4.9 0-7.4s4.8-3.3 7.4-2ZM102.6 124.4a3.6 3.6 0 1 1-1.3 5 3.5 3.5 0 0 1 1.3-5ZM81.5 133.8l.3 1.8-5.7 1-.2-1.1c-.8-4.3 1.5-7.5 5.4-8.2 4.1-.7 7.9 2 8.7 7s-1.7 8.8-5.8 9.5A6.1 6.1 0 0 1 77 140l2-.4a4.3 4.3 0 0 0 4.8 2.4c3.1-.6 4.8-3.5 4.2-7.3s-3.3-6-6.4-5.5c-2.8.4-4.2 2.5-3.9 5.3ZM66 127.7c4.2.5 6.9 4.3 6.3 9.1s-4 8-8.2 7.5-6.9-4.2-6.3-9.1 4-8 8.2-7.5Zm-1.7 14.8c3.1.3 5.5-2.1 6-5.9s-1.4-6.7-4.5-7-5.5 2-6 5.9 1.4 6.6 4.6 7ZM50.7 123.7c3.9 1.6 5.4 6 3.5 10.5s-6 6.6-10 5-5.5-6-3.6-10.6 6.1-6.6 10-5Zm-5.8 13.7c3 1.2 5.9-.4 7.4-4s.5-6.8-2.4-8-5.8.4-7.3 4-.6 6.8 2.3 8ZM31.8 132.4l-4.1-3.2c-3.7-3-4.2-7.5-1-11.3s7.4-4.4 11.2-1.4l4 3.2Zm5-14.4c-3-2.3-6.1-1.8-8.5 1.2s-2.2 6.2.6 8.5l2.4 2 7.9-9.8ZM19.3 105.6l5.7-3.2 1 1.8-14.1 8-3-5.3c-1.7-2.8-1.2-5.5 1.6-7s5.2-.6 6.8 2.2Zm-8.8.5 2 3.4 5.2-3-2-3.4c-1-2-2.6-2.3-4.2-1.4s-2 2.5-1 4.4ZM12.6 92.3l6.6-1.9.6 2L4 96.8 2.5 91c-.9-3.1.1-5.6 3.1-6.4 2.6-.7 4.5.4 5.5 2.7l5.4-6.5.6 2.3-5.3 6.4Zm-1.7.5-1-3.8c-.7-2-2-2.9-3.7-2.4s-2.5 1.9-2 4l1 3.7ZM0 70.2l16.3-6.1v2.1l-5 1.8v6.7l4.9 2v2L0 72.2ZM9.5 74v-5.3l-7 2.6ZM11.4 51.3l9.6-3-.7 2.3-7.7 2.4 5 6.4-.8 2.2-6.1-8-9.3 2.8.8-2.2L9.4 52l-4.7-6.2.7-2.2ZM23.5 44.5l-1 1.8-14.3-7.7 1-1.9ZM22.7 37.5a4 4 0 0 0 4.7-1.5c1.3-1.7 1.4-3.5 0-4.6-1-.8-2-.7-3.6.4l-2.4 1.8c-1.9 1.4-3.8 2-5.7.4-2.2-1.7-2.2-4.6-.3-7 2.1-2.6 4.7-3.1 7.1-2l-1.3 1.6a3.7 3.7 0 0 0-4.4 1.5c-1.2 1.5-1.3 3.2 0 4.3 1 .8 2.2.5 3.6-.5l2.3-1.7c2.1-1.6 4.1-1.9 5.9-.5 2.3 1.9 2.2 4.9.2 7.4s-4.8 3.4-7.4 2Z" />
</svg>
