<svg enable-background="new 0 0 27 22" height="22" viewBox="0 0 27 22" width="27" xmlns="http://www.w3.org/2000/svg"><g fill="#fff"><path d="m22.398 15.867-.621-.504.927-1.145.506-1.596-.466-1.725-.985-1.188.615-.51 1.119 1.405.551 2.036-.671 2.022z"/><path d="m23.969 17.373-.621-.504 1.403-1.734.783-2.466-.718-2.665-1.497-1.8.616-.512 1.63 2.02.803 2.975-.948 2.893z"/><path d="m19.475 9.942c-.682-.691-1.64-1.107-2.114-1.284-.004-.165-.016-.324-.04-.471-.213-1.301-.577-2.664-1.799-3.812-1.344-1.263-2.902-1.917-4.63-1.945-1.608-.051-2.948.494-4.434 1.749-1.143.963-1.747 2.473-1.951 3.06-.417.043-.835.134-1.252.312-.836.355-1.545.97-2.051 1.782-.621 1-.848 2.161-.607 3.107.237.924.833 1.786 1.678 2.428.9.687 1.998 1.062 3.172 1.084.764.014 2.27.018 3.962.018 2.419 0 5.222-.009 6.788-.015l1.271-.003c.58 0 1.521-.358 2.216-1.143.56-.633.856-1.429.856-2.302.003-.982-.356-1.845-1.065-2.565zm-.39 4.337c-.562.636-1.29.872-1.616.872l-1.273.004c-2.659.008-8.886.028-10.733-.004-1.003-.019-1.938-.337-2.703-.92-.702-.534-1.195-1.24-1.387-1.989-.186-.729.01-1.681.511-2.486.418-.671 1.001-1.179 1.685-1.469.856-.366 1.715-.38 2.556-.044.854.343 1.382.935 1.387.94l.603-.526c-.028-.031-.653-.74-1.694-1.157-.351-.141-.705-.214-1.06-.256.245-.626.766-1.739 1.613-2.453 1.343-1.134 2.461-1.58 3.905-1.561 1.544.025 2.884.59 4.095 1.729.989.93 1.338 2.015 1.558 3.358.172 1.044-.38 2.933-.386 2.952l.768.227c.017-.058.29-1.008.4-1.995.501.209 1.146.551 1.591 1.004.557.564.838 1.238.836 2.003-.001.684-.22 1.28-.656 1.771z"/></g></svg>