<svg fill="none" height="22" viewBox="0 0 27 22" width="27" xmlns="http://www.w3.org/2000/svg"><path d="m26.1824 2.54853c-.0342-.06729-.0939-.11775-.1793-.1514-.0683-.03364-.1366-.04205-.2049-.02523l-2.2026.55513 1.7928-2.346672c.0512-.067287.0683-.142986.0512-.227096 0-.08411-.0256-.151398-.0768-.201864-.0512-.0672881-.1195-.109343-.2049-.126165-.0683-.01682201-.1451-.008411-.2305.025233l-2.9453 1.438284-1.4599-1.387818c-.0683-.067288-.1537-.100932-.2561-.100932h-2.6892-.1025l-2.8429.807455c-.1024.016822-.1792.075699-.2305.176631l-1.5879 3.154124c-.0171.05046-.0256.10093-.0256.1514l-.0256 1.94293-4.32836-.73175-4.68693-2.2962-3.175837-2.346669c-.119521-.08411-.247579-.092521-.384174-.025233-.119521.067288-.1792814.168222-.1792814.302792v4.71857c0 .10093.0341488.18504.1024464.25233l.973236.95885h-.71712c-.136595 0-.239042.05888-.3073392.17663-.0682976.11776-.0768348.2271-.0256116.32803l2.4074908 4.71861c.05122.1345.15367.2018.30734.2018h1.05008l-.35857.8579c-.05122.1346-.03415.2524.05123.3533l1.35741 1.8168c.03415.0673.09391.1093.17928.1261l1.84404.6056-1.07569 1.0598-5.480883.7822c-.170744.0169-.2731906.1094-.3073394.2776-.0170744.1514.042686.2692.1792814.3533l1.639141.9841 3.99541 1.3878c.03415.0168.07684.0252.12806.0252h3.17584.07683l6.40292-1.5644c.0512-.0169.0939-.0421.128-.0757l4.815-3.9112c.0171-.0336.0427-.0672.0769-.1009l2.3818-3.9363c.0171-.0337.0342-.0673.0513-.101l.7683-3.93631c.0171-.08411.0085-.15981-.0256-.22709l-.6915-1.31212 3.0222-3.00272c.0512-.05047.0853-.10934.1024-.17663.0171-.08411 0-.15981-.0512-.2271zm-3.7137 3.07842c-.0683.06729-.1025.1514-.1025.25233v.0757c0 .06729.0086.11776.0257.1514l.7171 1.36258-.7428 3.75974-2.3306 3.8354-4.6869 3.8354-6.27487 1.5392h-3.0734l-3.89296-1.3878-.69151-.4037 4.58447-.6813c.08538 0 .15367-.0253.2049-.0757l1.58792-1.5645c.08537-.0841.11098-.185.07683-.3028-.03415-.1345-.11098-.2271-.2305-.2775l-2.27944-.7318-1.17813-1.5644.48662-1.186c.05122-.1009.04269-.2018-.02561-.3028-.0683-.1177-.17075-.1766-.30734-.1766h-1.35742l-2.048925-4.01204h1.024465c.15367 0 .25612-.06729.30734-.20187.0683-.1514.05122-.28597-.05122-.40373l-1.485477-1.43827v-3.88588l2.663607 1.96817 4.78937 2.34667.10245.02523 4.78933.80745c.1025.01683.1964-.00841.2818-.07569.0853-.06729.128-.1514.128-.25233v-2.27097l1.4855-2.95226 2.6636-.75699 2.4843.025233 1.5367 1.463517c.1195.11775.2561.14298.4098.07569l1.844-.90838-1.4854 1.96817c-.1025.13458-.111.26915-.0256.40373.1024.13457.2305.18504.3841.1514l1.9465-.50466z" fill="#fff"/></svg>